<svg width="71.1" xmlns="http://www.w3.org/2000/svg" height="54.1" viewBox="-3.5 -3.5 71.1 54.1" style="-webkit-print-color-adjust:exact" fill="none"><rect rx="0" ry="0" width="64" height="47"/><rect rx="0" ry="0" width="64" height="47" style="fill:none;stroke-width:5;stroke:#000;stroke-opacity:1" class="stroke-shape"/><path d="M15 35h34"/><path d="M15 35h34" style="fill:none;stroke-width:5;stroke:#000;stroke-opacity:1" class="stroke-shape"/><path d="M9 11h8"/><path d="M9 11h8" style="fill:none;stroke-width:5;stroke:#000;stroke-opacity:1" class="stroke-shape"/><path d="M9 23h8"/><path d="M9 23h8" style="fill:none;stroke-width:5;stroke:#000;stroke-opacity:1" class="stroke-shape"/><path d="M22 11h8"/><path d="M22 11h8" style="fill:none;stroke-width:5;stroke:#000;stroke-opacity:1" class="stroke-shape"/><path d="M22 23h8"/><path d="M22 23h8" style="fill:none;stroke-width:5;stroke:#000;stroke-opacity:1" class="stroke-shape"/><path d="M35 11h8"/><path d="M35 11h8" style="fill:none;stroke-width:5;stroke:#000;stroke-opacity:1" class="stroke-shape"/><path d="M35 23h8"/><path d="M35 23h8" style="fill:none;stroke-width:5;stroke:#000;stroke-opacity:1" class="stroke-shape"/><path d="M48 11h8"/><path d="M48 11h8" style="fill:none;stroke-width:5;stroke:#000;stroke-opacity:1" class="stroke-shape"/><path d="M48 23h8"/><path d="M48 23h8" style="fill:none;stroke-width:5;stroke:#000;stroke-opacity:1" class="stroke-shape"/></svg>